<mxfile host="app.diagrams.net" modified="2021-04-28T15:36:57.769Z" agent="5.0 (Windows NT 10.0; Win64; x64) AppleWebKit/537.36 (KHTML, like Gecko) Chrome/90.0.4430.85 Safari/537.36 Edg/90.0.818.46" etag="JcagBGML3NC54ABn1fj5" version="14.6.6" type="github">
  <diagram name="Page-1" id="13e1069c-82ec-6db2-03f1-153e76fe0fe0">
    <mxGraphModel dx="868" dy="492" grid="0" gridSize="10" guides="1" tooltips="1" connect="1" arrows="1" fold="1" page="1" pageScale="1" pageWidth="1100" pageHeight="850" background="#ffffff" math="0" shadow="0">
      <root>
        <mxCell id="0" />
        <mxCell id="1" parent="0" />
        <mxCell id="f-3u4H10zsd3Qw7v-mRC-9" value="Nhân viên quản lý kho&lt;br&gt;" style="shape=umlLifeline;participant=umlActor;perimeter=lifelinePerimeter;whiteSpace=wrap;html=1;container=1;collapsible=0;recursiveResize=0;verticalAlign=top;spacingTop=36;outlineConnect=0;" vertex="1" parent="1">
          <mxGeometry x="110" y="60" width="20" height="310" as="geometry" />
        </mxCell>
        <mxCell id="f-3u4H10zsd3Qw7v-mRC-5" value="" style="html=1;points=[];perimeter=orthogonalPerimeter;" vertex="1" parent="f-3u4H10zsd3Qw7v-mRC-9">
          <mxGeometry x="5" y="130" width="10" height="170" as="geometry" />
        </mxCell>
        <mxCell id="f-3u4H10zsd3Qw7v-mRC-15" value="Trang quảnlý&lt;br&gt;sảnphẩm" style="shape=umlLifeline;participant=umlBoundary;perimeter=lifelinePerimeter;whiteSpace=wrap;html=1;container=1;collapsible=0;recursiveResize=0;verticalAlign=top;spacingTop=36;outlineConnect=0;" vertex="1" parent="1">
          <mxGeometry x="260" y="60" width="50" height="300" as="geometry" />
        </mxCell>
        <mxCell id="f-3u4H10zsd3Qw7v-mRC-18" value="" style="html=1;points=[];perimeter=orthogonalPerimeter;" vertex="1" parent="f-3u4H10zsd3Qw7v-mRC-15">
          <mxGeometry x="20" y="150" width="10" height="50" as="geometry" />
        </mxCell>
        <mxCell id="f-3u4H10zsd3Qw7v-mRC-19" value="" style="html=1;points=[];perimeter=orthogonalPerimeter;" vertex="1" parent="f-3u4H10zsd3Qw7v-mRC-15">
          <mxGeometry x="20" y="220" width="10" height="50" as="geometry" />
        </mxCell>
        <mxCell id="f-3u4H10zsd3Qw7v-mRC-16" value="SanPham&lt;br&gt;" style="shape=umlLifeline;participant=umlEntity;perimeter=lifelinePerimeter;whiteSpace=wrap;html=1;container=1;collapsible=0;recursiveResize=0;verticalAlign=top;spacingTop=36;outlineConnect=0;" vertex="1" parent="1">
          <mxGeometry x="630" y="65" width="40" height="300" as="geometry" />
        </mxCell>
        <mxCell id="f-3u4H10zsd3Qw7v-mRC-17" value="SanphamController&lt;br&gt;" style="shape=umlLifeline;participant=umlControl;perimeter=lifelinePerimeter;whiteSpace=wrap;html=1;container=1;collapsible=0;recursiveResize=0;verticalAlign=top;spacingTop=36;outlineConnect=0;" vertex="1" parent="1">
          <mxGeometry x="440" y="60" width="40" height="300" as="geometry" />
        </mxCell>
        <mxCell id="f-3u4H10zsd3Qw7v-mRC-20" value="" style="html=1;points=[];perimeter=orthogonalPerimeter;" vertex="1" parent="f-3u4H10zsd3Qw7v-mRC-17">
          <mxGeometry x="15" y="120" width="10" height="170" as="geometry" />
        </mxCell>
        <mxCell id="f-3u4H10zsd3Qw7v-mRC-21" value="" style="shape=image;verticalLabelPosition=bottom;labelBackgroundColor=#ffffff;verticalAlign=top;aspect=fixed;imageAspect=0;image=data:image/png,iVBORw0KGgoAAAANSUhEUgAAAiMAAAH1CAYAAAAkpf4eAAAgAElEQVR4AexdC9gdRXm2MRDuakVQa7GgCI9YEhWVegNFEqKI1QJJVKqCBrCttZWgBQuWaBWr4L0ExVoIrYUHQdFW4g0DFLwRECRErUgCVbmoUEHFkOnzLr7H+Te7Z7+zZ3d2Zved5zn/7s5+833fvN+cnfefy54HuYTT9ddf74488kj3qEc9yj3oQQ/KjrhGvpIQ6AsCa9asce9///vdEUcc4fbZZx+30047udmzZ7tZs2ZlR1wjH/chB3mlYSBw7733ure+9a3u5JNPdps2bRpGpVXLxhG4+eab3cc//nG3dOlS98xnPjPrS7fccsusX8URfeyf/MmfuNe+9rXuYx/7mPvhD3/YuA8PalxjIIWf/OQnM6De+c53joABQLgGMcF9JSGQKgI33XRT1sHsscce7glPeII7+uij3VlnneWuuuoq9+Mf/9jdd999WdVwxDXycR9ykEc5dFDQo9RPBD7wgQ+4Rz7ykVkH8YMf/KCflVStWkUABOR5z3uee/jDH+6WLFniPvShD7nLLrvM3XLLLe5Xv/pVZhtHXCP/Ix/5iHvFK17hdtxxR7f//vtnxKQpEpwkGcHIBwjHV7/61cJAIR/3NUJSCI8yI0YA5AGEYptttnFveMMb3Ne//vVa3qIcykMP9ImU1IIxykL4R2vvvfd2hxxySEZCo3RSTkWNwBlnnOF23XVXd/DBB7tPfepTtUbVLrrooqwNQg9IyrSkJEkygqkYjICMS7gPOSUhkAoC7373u7OplxNPPNH9/Oc/b8Rt6IE+TOlAv1K6CHz5y192L3jBC9y+++7rPvOZz6RbEXneGQKYwn3+85/vFixY4FavXj01gUBFLr/8crdw4cJspOSb3/xmbZ1JkhHMX1XNWeE+5JSEQOwI/OhHP3IvetGL3Atf+EK3du3aVtyFXuiHHdhTSgcBjPC+/OUvd7vttpv76Ec/Wvthn06N5WkbCGBKBv+UfPCDH2ylDWF0BPrrttEkyQimYCzJKmfRJRkh0AYCV199tXv84x/vTjrppDbUb6YTdmAPdpXiR+AlL3mJ22qrrbLFyR/+8IfdO97xjmwtEI64xlD5DTfcEH9F5GGnCKC9YB3ZlVde2QoRYeUwPbznnnu65cuXT2zH1qvTUiRHjYxEEgi5MRUCGNJ8xCMe4c4888yp9ExaGPZgF/aV4kPg1ltvzf57xXz+Fltskf23+Qd/8AfupS99qTvhhBPc2972tux47LHHZnP+u+++u9t+++2zUS8sasViQyUhQARARLDbbv369cxq9Yj297SnPW1iQpIkGdGakVbbkpQHQABb6R772Mdmq9EDmNvMBLbnwT78UIoDASy8X7x4sdt2223dq1/9anfeeee5O+64w/3iF79w73nPe7IRrfnz57sLLrhgM4chd/7557vXvOY1WflFixa5Sy+9dDM5ZQwLAUzNYEQkFBEhuiAkGCGZZMomSTKi3TQMuY6pInDAAQdkQ+5d+o//mOCHUrcIYJrl8MMPz8gG3hPzy1/+stShlStXumc961nZbpqyHQzYiol1ARgxOeyww9x3vvOdUn260V8EsFgVazjanpopQxBTNrBvXdSaJBlB5fWekbImoPzYEcD7Pw499NAo3IQf8EepGwRAPh784AdnuwMn2Rq5atUq92d/9mdu5513zuJXtij51FNPzfSffvrpE8/hd4OIrDaFAHbN4L0hk7SrpmxTDwgz3mNy//33M6v0mCwZQY0wQoIpG6whwWJVHHGt94uUxls3WkLA2qF/+9vfzt79sWHDhpY8mUwt/MC0APxSCovAUUcd5Z773Oe66667rrbha6+91r3+9a/P1pGUdTp4Hu63337Zs7FMprYDKhglAniPCLbvWkhA2xXAtt+yUTzfdtJkZEZFjDts/DI6FwJNIWDduYUtmu9617uaMtuIHvgDv5TCIYBdMlgX0hQ5+MlPflLpPNaT4EVpTdmsNCiBzhDANnCsQYoh1ngPCfzZuHHjWDxERsbCo5tCwIaAhYzgP2AMq8fwgPBrBX/wWvFp/kP39el8PAJYH4K34nbRDo455phsfUoXtsejortNIYBFqy9+8YujGBVhnUC+sWh+XLuLnoxgTtvyQWdgkYOMkhBoGgELGTnuuOOyLZlN225CH7aMwj+ldhF485vfnD2nxj2U2/XAZfaXLVs2tmNo2wfpbw8BrBXBjqsu21i+dngfDtaOjBsdiZ6MYLua5YPOwCIHGSUh0DQCFjKyyy67RLueCesK4F9MD7CmY9S1vs9+9rPZcHVTr/qvW5+77ror8+Piiy+uq0LlIkUAW/XxDqFxnX5XruPXxcf9oGP0ZMQKnKUzsOqSnBCYFIGq9oftbXvttdekaoPKP+lJT9KL0FpEfN68edk/TC2aMKvGf87wR+TTDFkSgpiiwfqvGBau5gF75StfOXaqRmQkj5iuhUANBKrICN77gHUCMSf4Bz+VmkcAL3/CG1Vj6vzhz4oVK6LyqXnkh6UR32H8TEBM7YwRwI6apUuXlhIlkREipaMQmAKBKjKCLyG+jDEnPixi9jFV357ylKe4z3/+81G5f8kllzj4FWPHFRVQCTmDF+LFsosmDxt21Tzzmc8snUISGckjpmshUAOBKjJy4IEHOjz8Y07wD36qc2o2Sl/72tfcE5/4xChxhV9XXXVVsxWWts4QwG8YhX71u7WyeEX8Yx7zGJERK2CSEwJ1EKgiI09+8pOj/6Vc/JIv/BQZqdMCysu8/e1vz3YqxYgrdtXU+YXV8trqTpcIbL311u6ee+7p0oVS2/iZAvhXtrhWIyOl0OmGELAjADIy7jNnzpzofyMEv2GCRbYxdpr2SMQn+aIXvchdeOGF8TnmnPv0pz+d/dqvYh5leCZ2Cj8tUNbZT6yshQLj/BMZaQFwqRweAhoZGV7MrTXedddd3fe+9z2reFC573//+w7+iYwEhb01YxoZaQ1au+KqzsCuSZJCYHIEqtqf1oxMjmlfSmy11VZjf4m3y3py6DzGraBd4pKqba0ZiSByVZ1BBC7KhR4jUNX+tJumx8EfUzV08hiajnnkYfbs2aXbLcdUTbciREC7aSIISlVnEIGLcqHHCFS1P71npMfBr6iaRkYqANLtxhDQe0Yag7K+oqrOoL5mlRQC1QhUtT+9gbUaw75KaM1IXyMbX730BtYIYlLVGUTgolzoMQKW9qffpulxAxhTNe2mGQOObjWKgH6bplE4J1eGVxpvueWW2auNJy+tEkJgegQsZES/2js9zilq0HtGUoxauj7rV3s7it23vvUt93u/93vu7LPPzo64VhICoRGwkJHrrrvO7bzzztEtZsTiykc+8pEO/ik1j4DewNo8ptJYjgCmal784hdHtSj5JS95ydgfyUNtkn/PyD777OPOOOOMLDI44lpJCIRGwEJG4BN+UfNd73pXaPfG2oM/8EupPQT02zTtYSvNmyOw2267RfMbNfhNGvhT9TK2pMkIVg6/7nWvmxEJXCNfSQiERODkk082mfv2t7/tttlmG7dhwwaTfNtC8GPbbbd18EupPQT0q73tYSvNmyOAf8wXLFgQxejIwoULsx8JrdreniwZwTqRol+cRIWRj/tKQiBGBEBcDj300Chcgx9WIhWFwwk7MW/ePHf++edHUYMLLrjAwZ+qDiIKZ+VELQSwduRDH/pQpzHGL4E/73nPM5GiJMkItkliWPwb3/hGYZCQj/uQUxICMSJwwAEHuHe84x2dugb78EMpDAKf/exns+Hqn//852EMlli56667Mj8uvvjiEgll9wGBNWvWuFmzZrkrr7yyE0Ly9a9/PbOPfthCepMkI0996lMrRz4wMgI5JSEQIwLYgvfYxz42W9TVhX8f+9jHMvvwQykcAm9+85uzUTHLw7ktrzAahl/r7dKHtuomvTMRwGLWPfbYw61fv37mjZavbrnlFrfnnns6TE9a21lyZASv1cbHkiaRteiTjBBoEgH8x/CIRzzCnXnmmU2qrdQFe7CrkcNKqFoROPzww7N1bdaHdJNOHHPMMQ72u7DdZD2ky44ARkCxsSMUIQERedrTnuaWL18+UTtLiozUGe2wjKLYwypJIdAsAldffbV7/OMf70466aRmFZdogx3Yg12l7hDAVsdXv/rVEz2sp/X2Na95jTvkkEOC2pzWZ5VvBgEQEoyQtD1lg6kZjIhMSkRQy2TICP6Lq7MOpG65ZpqAtAiBagR+9KMfObyl84UvfKFbu3ZtdYEaEtAL/bADe0rdI3DUUUe55z73ua2/3+X66693++23nzvyyCNFRLoPe2ceYMoGa0jwO1ltjIxhsSr0TzI144ORDBmZZoSjzoiKD5LOhUAIBN797ndnX+YTTzzRNbXIEXqgDw8J6FeKC4H3v//92a/6vvOd72ylgzj11FMz/aeffnor+uNCU95UIYBFrdhlg22/q1evbqRN4D0i2L67//77Z1O/dYlOEmSkibUfTeioCrTuC4FpEbjpppuy9QR4F8kb3vAGh2HPOgnlUB568N4d6FWKE4EbbrghW8eB6TOQk1/+8pdTOfqrX/0q++939913d4cddpj7zne+M5U+Fe4fAngPCX7A8eCDD3af+tSnapGSiy66KJv2gx6MitQlIUQ3ejLS5KjGNKMrBExHIRACAZAHvP8D87xPeMITMkJx1llnuauuusr9+Mc/dvfdd1/mBo64Rj7ug3hAHuVQXiQkRLSasfHVr37VLV68OHsJHdaTnHfeee6OO+4wKYcc3mGCdSF4id2iRYvcpZdeaioroeEigKkbvAfk4Q9/uFuyZEn2XpLLLrvMYREqSC0SjrhGPkjHK17xCrfjjjtmIyHYlTctCSH60ZMR6zoRy4ubuH6ElddRCKSAAIZW8R/z3Llzs1XxO+20k5s9e3Y29YIjrrFa/ogjjsjkIK+ULgK33nprNrKB/1q33357hxEOnB977LHuhBNOyDoBHHGNfNyHHNYDfeADH8g6jnRrL8+bRuBtb3tb9rtt6EtDfrBY/v777zdXJ3oyYq0JQFYSAn1GAD8I6f8XMskXvc+49L1umMbBkPiHP/zh7EV5aAf4JWBcIx/3lYRAGwg8+MEPrvxNmabs9qYHFxlpqklIT6wI5MlIrH7Kr3YRUDtoF19p/x0CIiO/w8J8hqEoJSHQZwTUxvscXXvd/uEf/mHGCJm9pCSFwGQIhGxrvRkZmQxiSQsBISAEhIAQEAKxINBLMnLjjTdmi/1WrlwZC87yQwgIASEgBISAEChBIDoyUkYkTjnlFAdyce+992bbF/GilbIEWSzswjY56FMSAjEgwLZdtKJdxLn9CAHjefPmzXjLLbbEYksj3lCLZwt+u2Xcs2VSL/FabDyP/IXHyMPOKOx6qmuPvmL9CNoTXmJ1++23T+reDPlzzz13M19nCJRcoD7A9p577snqgy2gSmEQwDPlyU9+8miXDN6nhTjUTfg+4AVmbFd8VnG6BvbwfbntttvqmigtFy0ZwZfL32NvJSP4krKcf16KgG4IgQ4QwMMb7wRBG1UKgwAwx0OWD1ZYDU1G0HEj7ugwSCgmJT8s55Mc6DjooIOmIiQiI2HaYVNWSERA/kh2/fZVxw7JiK8T7Q3byJE3ODKCEQ18YfFlY8qTEbwMDf9dgLnhIcOELyXZHI78ouMIvfggH2UBrJIQ6AKBIjKCNo6XVbFN4yGA7wHbM8kL2i2/I7zHdo66QDfbOH4q3v8edVHXWGwSc/yjw//ei8gIni0YQQGG55xzzsh9lOd/jHh+8HeE0AGcdtpp2egEyvhkB/eAPzoL2ud/riQVeXvsWBBT2vP/40V+EfGALdhAeepmedYXZfGfLdoP7rEevi34j2vghPskT76M7w/t5kdGxsmjncM+8GV9R0DrxIQA8EU78Ecp8GxA3Ng2QTDxUxB8HmAbONsG2iXbB9tsERmBM4wx9KL9vPe978307r333jO2lvv2eA/2QGbw1ld8r2Dz7LPPzr4X8G3+/PlZHaIcGcEXZd26ddkXhoQBwOGLhorhy8EHMwJCYgFZVIxl+OVHGcghIDhShx7SpjYvoRYQ8Nsm1aM9sl0jD9dso3hI4CGD9ov2jTYPHZRjOf87wDLUQTtDPQIvYAEMgRc6zyIywnuQ47QOzn0C4JMMnLNThz7IsfOnHGwjfv5UCp5DmKYpsoc4wjb0UA6+o+OmznGdOGSK9KIe6AyK9PojI37d0V6q/EH9fDICeXaKRf7Tt6G2xSbqjbaGKRW0vaJ3zVxxxRUzyArbDePEGEAOUz3QQZ1oH2xffh7iClmSSLazX/ziF26cPZAR2KMcSAgICXzBPeiLlowAADRwVACNGV9EXOMceThHghzIC0DKJ3yhWB7n+HJAHgnl9ZDOI6brUAj4bZs20R7L2iTbPdox2rpPuv12nm/X+WvaGuKRWPBhjGs8D/JrRpCP5N/L40VdReQgf4//fZaRkSJ7iCmICnxFwjXJEDoAlGFnkfeNnT8JEa9RxteDcj4B8c/zchZ/iCvswhaevb7/rA87xTL/8/XR9XgE/NGIMmLix5pxIqFAO3/5y1+ejabgvGjNCIgD4oVnD9ohyQ8ICOIKkpFPbE+wR8JBHbDHER28wA/tJWoy4j+A82QEXw4kgOeTEchhBIQfn4zwHOVQ+bIHfx5UXQuBphHgwxptnIltnNf44uPhwrbMkT3ko82j7SPhu8C2DR1+u1Y7J5q/+87zgQgSAizzZMR/tuTvkVggFhzaJjmgJWIOO7hHEoJzv4MmSSiyx/bBzpx+YmSlqjNHu/BHZ+AXfYQtkgLks8OAr/55kZzve94f+MtOjmTExwp4gUDTf8jDplKzCPijE2xffhzQZv04IQZoL3ky4o+M+B4y7iQSPhmBPZAO3x7ejUQyQp3QkRwZAQj4UuDLjC8CGjAqjHP/C0wyQtmihzTuoRzKI0GX/9D2Ade5EGgbAbQ/vz3Cnk9G2M4hh8RrtGN8mcvISL5d56/brlfM+okFO0GSA2BZtJsGzxGSEZRFvEgOfF15cuBf++eIIYgAyjKmuPafZbSHPJ804JojI/65jzfIBHT7nY1vB/fyen0C4p/n5Yqu6Q/qmLeLa7RnYu37Sfmie76czscjAIzx8XH0iQXi6bchxtdvHyjrl8E5RkZIHPIejCMjtMdREt8eSAp1JktGAAYaNZg1gPcfyrgH8IrICOX4wMeXiecoxy9LHmxdC4EQCKD9+e0RNseREbRfy8gIvuicwsF3A0QeepV+953nwxv4oEPleg+SBWCNhPskB4wXHuQsx84WnStHP3gPD14kn4zgGvHJrwUpslckR3v0k9fQCx1c30K7JE/+PZwXdVDAhJ0HzvNy4/whufA7OcgDEy6khAz9oTzjAH+VJkcgjzE0IIZo0xi5IDlgmwXJaHNkhPZARvA98O31hoygYmjYVWSEBAQPbTxg+K4RlMeXy3/4i4xM3vhVojkE2LmhzTKhc0E+E9os2jI+uMf7eAiVjYygLHSgDL4z2OWBckqbkxFgAozZibOTRx4SnhskIzjHQ564XnjhhTM6V+xa4pQa5uKZ8mQE+YgPhrK/+MUvZjqK7EEO+Rzy9nev4B595X0SKtrN3yc5gs4yMkJ76LDycuP8IbnwyUhenlM0yKe8yAijVf+IZ4H/nhHgzCkUtFmu/0A+2ixij3wcOVKB6yamacrsYWouSTJSPywqKQSEgI8AOiQQcJ/g+Pd13gwC7Fyb0SYtQmCYCES3gHWYYVCthUAzCOA/Wo6mcESlGc3SUoaAyEgZMsoXAnYEREbsWElSCAgBISAEhIAQaAEBkZEWQJVKISAEhEBbCGC7pNZbtIWu9PoIhGxrvSEjHJ7GUUkI9AkBLkj1F2D3qX6qy2QIYNGqyMhkmEm6HgIPfvCD3caNG+sVnrBUkmQkv5sAq3ixu8DfPTMhDhIXAlEjgB0x2B2Dtq40bARERoYd/5C1FxkJibZsCQEhIAQSQoBvfk3IZbmaKAIh21rUIyN8rwLjiOFq5OVHRjhFg90DHMrmtkbIc3cBzpWEQIwI+G3YHwHBSAiu822Y3wG0d97TFGWMkZVPQkAIWBCImozg4ZonF8jjgxgPapzzjZM+AeE5y6McXgwEeSUhEBMCnGZk2wTpxodtGOdIflvHOdoz74Fos63HVDf5IgSEgBCwIBA1Gck/fPnWSeTzHA9j/yFMAnPnnXdm+XxY5x/4FnAkIwRCIGBtm76c/92Aj2z3IDBK/UYg5A6HfiOp2lUhELKtRU1G+J8hHrQgFZxmyZMRDlPziGHtW265JSMjKIvkP8irAqD7QiA0AmjTfJ14nlyzXePI0T3/OwBfRUZCR6w7e1rA2h32Q7OsBaxexElCQERILPwHMe97RbJTn8ggQ2Qkj5CuY0WAbRptFsSa7d5vw/53APUQGYk1ms37JTLSPKbSWIyAyIiHC/9j9Bf1+Q9inHPNCIpx7pzTNEUPck+9ToVA5wj47RnOgIzgkycjyNPISOfh6tyBkDscOq+sHOgUgZBtLeppGkSBIxycokFe/uENwsGhbJIWlhMZ6bQty7gRARANtmF/msbPX7FixWjqseg74JczmpWYEBACQiAKBKInI1GgJCeEgBAQAkJACAiB1hAQGWkNWikWAkJACDSPQMgdDs17L40pIRCyrYmMpNQy5OugEeDUI6Zz/GnLQYMywMprAesAg95RlbWAtSPgZVYIxI4AFrWeeeaZsbsp/1pEQGSkRXClegYCIiMz4NCFEBACQIAjI1qoOuz2EHKHw7CRVu1DtrXkpmn8nTNFw9UYvtYQtr5EKSKAtj2OaOA+2zd22SgJASEgBPqCQFJkxH/PAgJQ9J8iH9Z9CZDqMRwEqsjI+vXrR2D456NMnQgBISAEEkUgGTKSfwEU8c7ni4wQGR1jRIDvBznttNOy94rwJWbwlWRk2bJl2T2+Mwf32M75LhKO/hXpgx6ULRo5jBET+TQZAiF3OEzmmaT7hkDItpYMGeFDFw/lfPIJiH+el9O1EOgaAbRjEBCSCYz2cWoGJAIEAkeO+kGO55yagQ6+dZj6eA/yJDi+XNf1lv3mENAC1uawlKbxCGgBawE+/G+viIzgQcyHO448L1CjLCHQKQJ5goD2jF+gRn6+jfvt2nfaL5PX55fx5fzyOk8bAZGRtOOXkvciIwXRwkMXD+0iMuITEP+8QI2yhECnCOTbsU8YQEY4SgInfWKBe5yiwdEf/fC/F34ZX3enlZbxRhEIucOhUcelLDkEQra1ZKZp8GDFPDgeyki4XrVq1WgunfkiI8m190E5nB/J8K/LyEhR2+doSp7ciIwMqjmpskKgNwgkQ0aAOB60/I8QD2gu9POnZURGetM2e1kRkAe0YbRltmmOhljJiP89EBnpZTNRpYTA4BBIiowgOnhg+8PV+CVTPNz5QAcZ8e/j3Ccrg4uwKhwVAiQPaK9om/6OmTIyggqAgLBdj/v1XsixvYOwcwQlKhDkzFQIhNzhMJWjKpw8AiHbWnJkJPnoqgKDRoBkBERBSQjUQUALWOugpjJ1ENAC1jqoqYwQSAABkZEEghS5iyIjkQeoR+6JjPQomKqKEBACQqBJBELucGjSb+lKD4GQbU3TNOm1D3ksBISAEBACQqBXCIiM9CqcqowQEAJCQAgIgfQQiJ6MFG3VRR520FxzzTXZLhrsQlASAn1H4OSTT+57FVU/AwIhdzgY3JFIjxEI2daSIyMgItzGy9/sEBnp8bdBVRshoIWLIygGfaJ2MOjwB628FrB6cPsjI3iHAokIREhG+K4RvIcBMkzYuYARlPz7HHhfRyGQEgLqhFKKVnu+qh20h600z0RAZMTDg2QEJMN/QRRESEZIUDBCAvIBEsJXaJOc+CMqnnqdCoFkEMCQqZIQCLnDQWgPG4GQbS2JaRq+ebKMjJBw+G+czL/PAdf82fVhNy/VXggIASEgBIRAXAgkQUZIQvKjGxwZ4ZoRn4wgj+UAuX8vrhDIGyEgBISAEBACw0YgCTICEoJE8sGREF4XkRGNjAy7Yfex9tpN08eoTl6nkDscJvdOJfqEQMi2lhQZQZBBMrAuBARkHBnRmpE+fSVUFyCghYtqB2oHagMhEdACVg9tLmD1ska/YPqlL31pxntG8lMxJC7aTeOjp/NUERAZSTVyzfqtdtAsntJWjoDISDk2uiMEBouAdtMMNvQzKh5yh8MMw7oYHAIh21r00zSDi74qLASEgBAQAkJgYAiIjAws4KquEBACQkAICIHYEOgNGdFOg9ialvxpGgG18aYRTVNfyB0OaSIkr5tCIGRb6w0ZwSJVJSHQZwS0cLHP0bXXTe3AjpUkp0NAC1hr4CcyUgM0FUkKAXVCSYWrNWfVDlqDVopzCIiM5ACxXGqngQUlyaSMgNp4ytFrzveQOxya81qaUkQgZFvT3EaKLUQ+CwEhIASEgBDoEQIiIz0KpqoiBISAEBACQiBFBHpDRrTTIMXmJ58nQUBtfBK0+isbcodDf1FUzSwIhGxrvSEjWsBqaVqSSRkBLVxMOXrN+a520ByW0jQeAS1gHY9P4V2RkUJYlNkjBNQJ9SiYU1RF7WAK8FR0IgRERiaC6wFh7TSoAZqKJIWA2nhS4WrN2ZA7HFqrhBQngUDItvYgjCj4HyLk5/mjDsp/ACHhIBxCfC82bdqUAY3/hv02p/wHnlvCYSYOs2bNmtFO7r///qz9KH9YOGzcuDGLO0Y2/OeGn8/zB57k3f/NyEj3bsgDISAEhIAQEAJCIAQCIadfrPXpDRnRTgNryIcjd/nll2f/FSxYsMDdcccdyVdcbTz5EDZSgZA7HBpxWEqiQ8BKRkK2Ne2mia6ZyKEmEVi1alUviAgw0cLFJltGurrUDtKNXSyeW8mIVa6JeomMNIHigHRgtKHuSMONN97o5s6dW7v8pDBzZATHPiR1Qn2I4vR1UDuYHkNpsCEQlI1GA40AACAASURBVIz4i/Bs7sUpFeNOg3vvvdcdffTRztoZsvPkgiOWwxQDCACv247AypUrM7/hf1HC/bq+oGxdMpP3BT6U6YLvy5YtcxdddJFbvHhxL0ZHYmzj+Zjoun0EQu5waL82shAzAiHbWm/WjMQWUBIIEAtLx53vpFkeZf3zEPWsIiPwYf369SFcGWujiowANyUhIASEgBCYiUDIEY+ZlsuvREbKsal9B/+Vn3LKKW7dunWmEY2yERR0ppjaIBmBTpAbTHUgH4n3kM9RAuqjfBEhGicDMoLRBHxQFnqQWAZ5+GDUB3l+8v3x7XKKhmVhg/rG+QndkMUoB+yhPP0hGWG+74+vk7jAN9RpxYoVIxypA3phR0kICAEh0HcEREZajHCMOw3YMaPDG5fQUc+fP39EMPKy1MNOGEd82JmzE8URHfKdd96ZHSnPfJ84sGyRDORJeHzfNmzY4PBBYsdOUkSfUZY6UW8ShDVr1oyIC/MtfkKv7w+xgA58SHj8fJyDCCKxnpClDP3DkUSlCCPWKZZjjG08FmyG5EfIHQ5DwnVIdbWSkZBtTQtYW2yB7PzQEY5LkMN/7PmOnWXyetjh58uhPPTccsstGQmAHBLskxRQJzvpIhm/Y87bYDmQABIW6sQRPiCfJKHsnk+ainzwy+E+CQTycY481Itkgn75WEMOftCXMhyhswgj34cYzrVwMYYodO+D2kH3MUjdAysZsco1gYfISBMolujId34lYjP+e/dl2EGCXKDTZUfLzjlPFNomI7Dvd+zjCBRlSRb8UQjWiyMjTZMREiLo9UlKPh7EEZjTJ8jHkEiiLEe+hTQGv+VDswiAeFjaAGTUDprFXtqcC0pG0Ij7kGLcaZDv/MbhjI6RHTfk/LL+Oe6xE2VHi2vmW0cc8mX9zhj6OJIC2yQdvgzOi0ZGUJb+kBxBB0cz4CfOrX6yXsTGxwI+MJ/1QZ5vl8QE+X5Z6oUvSLjPOmcZHf+xdi76L7njQLVs3hpfq1zL7kp9zxDQbpqeBDTf+eWrhY4QnSATOnH/vyDey+uBHDtR3kO5fMdMUlDU0bLzLpJBHjtm6CcZ8W1xQSl9ZB2ol/XgfRyZhwWk1ukk6IU/WFPD6R/WHTrzdUae7wPqAV+hg/7TJ+T5ulhn1qXLI7Cy/KerTqjLKLVv2xpfq1z7HstCCgiEHPGw4qHdNFakJNcZAj456syJwIZFRgIDHqk5K8mwykVaTbkVGAGRkRYBH/pOg/woS4tQB1ctMlIOuTqhcmz6cMcaX6tcHzBRHaZHwEpGtJumBtb4T1IpHAIgP5ziCGd1OJY0MjKcWI+rqZVkWOXG2dK94SBgJSNWuSaQ600PLjLSRHOw6cDaCxARrM1QagcBkZF2cE1Nq5VkWOVSq7/87RaBoGSkL514jLtpum1G5da5wBPTH3USiAgXjtYprzLVCIiMVGM0BAkrybDKDQEz1bE5BLSbpjkspakEgarRDRAOkBXIcTcNVGEnCnadYEfMJGQmr6fELWX/FoE+khG0HXSaTe9aQts66KCDstE6yw6klBqZlWRY5VKqu3xtD4GQIx7WWmg3jRWpHsrhIV401WIdOZnkx/Lwvo9xr7zvIbxTVSkGMsJ2AF/waWKNEHTkyQhIbZFunxCDbHBLdh5YlAc5ht4ymXyZcddoq0uWLHG33357RrjhR1ckx0oyrHLj6q17w0FAZKTFWA99N00eWnYkfDj7ZAB57GBwpAx14OGOfLzX46qrrpoxMoIHM8tyZATl0RHgfR64l+9s6Avvlb1RFvZ934o6KPrY9yOwsnSAbXZC55577ogkgLhiao4xbxt/tJljjjlmNDo3joz4vkxCkP1y/jnaIOyBjHSdrPG1ynVdH9mPAwErGdFumhrxwsNbaSYC6DjYoeMB659T0pdhHskD7vnTK76sn08CgaNflvpw9MkQOzbII1Gvn089lPF1DeE8BjKSxxntB7EalxAvdIwgsiCnKIO4YqQBbQAJMsjHB+eMv68XedRz5ZVXjqZhmLd27dpMnKQFeMEm8pkH/ZDHvcsuuyyThw/z5s3L8jAfDuJ8zz33jEzDVxARlMF9+gZigjqgTnkfRoVbOIGtrklpC9WSyo4RsJIRq1wT1elND46Hh9JMBPDgxcMTD2c++CmBTgCY4YN7fiIRwIMYD2euGYEcy/AIGejyR0P4APd1WsgIZGALNoeegG9MnZDfDspiw44c7YFtCG0G+UVkBPHGrzkXtRcSCrZBEAS2UxyLzmEXcvhlaYyqQAYYQgfaJ/zgaAvqsHz58s3ICPKpx5+mwTl0QxfL0ocso6U/IiMtASu1JgSCkhE89PqQtJtm8yjigQ4yQrKAhzE7CZKHso4A99kR+GSED2PfGvVDN1KRTpERH7Hq85jICNsM4jwu4T6mcji9wXZQREbQvtCZQzflfN3IJ3FAeRAB2qc8ZZhPOyA4bL/Qifu4vuaaazL/OKrCfH9khPKwV0RGOMJCH3yf2zgXGWkDVem0IqDdNFakJFeJAB6aixYtGv0n6XcsPM//h8d8lMUDnmQE19zSi3yc44GOD4bIQTj8sr5zPhnxZXgOH3ydzIfNIaZYyIgf/6o4oB1YyUiRnK8f8RcZcdmUUEwjZH6MdJ4uAiFHPKwoaTeNFalE5fwOnlVAB4/ODgSCuxDw8PcTyAHuWxewQha7ZaAX/4Xm9dEP3vN94NoC2Adpga4yPb6PfT6PgYwgZogXjpYEOY5gkExy9AN6QFaQkIcPE9qCf418CxnJ64J+2Oc0DYks8lkPEhyUrTNNo5ERRk3HlBEQGWkoenhQWz8NmZSaMQjwP2JrpzVG1aBvXXLJJaP6x0BG0Fnnv2fo4MeRFLQFLvD0SSbzoc9CRgAE5EBMuYAVOpB88kLSAr2Q9Rew5skIpmNAdsctYIV+ysA+bXHNiMhIFgL9SRwBKxnRbpqKQOPBY0lWOYsuyZQjUJeMoCNBh4WH/9DTPvvs47beemv3jGc8w4GUoO2mPDzPkRESghjjC7IFwmHBuSv/tWakK+T7bddKRqxyTaBl69WbsNSgDivJsMo16JpUCYFaCBx22GGjUYgddtghSTLCaRp87/DhlFwtQFoo5I+iwD9/3UoL5ipV3nXXXe7Zz352trC2TFhkpAwZ5YdAICgZSbHDtvpslQsRVNkQAuMQ8MkI2i0+lv/YrZ3VONu61w0Cd955p9tiiy3cVlttlW19Xrdu3WaOWONrldvMgDKEwBgEtJtmDDi4ZSUZfKjraF9jI6y6wWqbbbbJ2rWPv5WMzJ49O+vQtt9+e/ewhz3MPeIRj3CPetSj3C677OJ2220394QnPME98YlPzNZUPPWpT82mgp71rGe5/fbbz73gBS/IFn0efPDB7k//9E8dSBHeCXLEEUe417zmNW7p0qXu9a9/vXvDG97g/vZv/9a9+c1vdieeeKLDG48xzfGud73Lvec973Hve9/73Ic+9CF3xhlnuLPOOsv967/+q8MbXP/jP/7DfepTn3Kf+cxn3H/+53+6VatWua985SvZS8iwFuQb3/hGNjJw/fXXZ9N13//+993NN9/sbr31VveTn/zEocPGCAJGNe677z4TQat4fERzG/Xz4444vva1r3X+W2StJMMqF03l5UinCIQc8bBWNMndNHhgW5JVzqJLMkKgTQSmGRlBJ43O+u6773Y//elP3W233ZZ15ujU/+d//sfhP2509njPxje/+c1shxTW+YAUfOELX3D/9V//5S6++OKMNJx33nnu3/7t39zZZ5+dkQrstvrwhz/s3v/+92ekA+Tj7W9/u8PCtre+9a0ZOXnTm97k/vqv/9r9xV/8RUZejjzySPfnf/7n7uUvf3lGbl760pe6F7/4xW7hwoUZ+dl///2z6Yl9993XYa0MFp7utddebo899nCPe9zjMhL16Ec/2u20007u93//9x1IFtbTYBQBnS7J13bbbece+tCHuh133DEjX3/4h3/odt11V7f77rtn5Gvvvfd2T3nKU9zTn/50R/J1wAEHZNMzJF+HHnpotnX9la98ZUa+Xve617ljjz3W/dVf/VVGvo4//nh3wgknuJNOOikjX+985zvdP/3TP7nTTz99RL4+9rGPuU984hPZYleQrwsuuMB9+tOfdp/73Ocy8vXlL3/ZrV692v33f/93Rr7wHpTrrrvOXXrppTPICJ5XqCOOf/M3f5O958RKMqxybbZh6U4HAZGRhmJlJRlWuYbckhohUBsBn4ykumakduUnLPib3/zG/fKXv3T/93//5372s59l5Ot///d/sxGFH/zgB+673/2u+853vuOuvfZa961vfct97Wtfy7YVo/P/4he/6D7/+c9n5OvCCy90559/vvv3f//3jHx9/OMfd2eeeab7yEc+kpGv9773ve7UU09173jHO7JXw4N8veUtb3HHHXece+Mb35iRL6yLOeqoo9yrXvWqjHwdfvjh7mUve5k75JBDMvJ14IEHuuc973nuOc95jiP5wm6eJz3pSdmo1Zw5czYbEcNza8stt3S8Zx0hs8hNCLXEe4qAlYxoN01FA7CSDKtchTndFgKtI9C33TStA9YDA5iSIvHEswqfhzzkIdlUG0gQCJd1xMMq1wPYVIUGELCSEatcAy4523xHE5Ya1GElGVa5Bl2TKiFQG4HY3jNSuyIqaEIA70QB+cBzCtNNj3zkI90HP/jBGetirCTDKmdyTEJC4LcIBCUjKXbYVp+tcmp5QiA2BNB2LcPu6oRii5zdH6wbwRqRP/qjP3JYd1IUb2t8rXJ27yQpBFw2PVnULtvARgtY20BVOoXAlAiIjEwJYCLFsV5lXLKSDKvcOFu6NxwEQo54WFEVGbEiJTkhEBABkZGAYEdsykoyrHIRV1WuBURAZKQhsK3TL1a5htySGiHQGAIiI41BmbQiK8mwyiUNhpxvDAErGdFumgrIrSTDKldhTreFQHAEREaCQx6lQSvJsMpFWUk5FRwBKxmxyjVRAe2maQJF6RACDSMgMtIwoImqs5IMq1yiMMjtjhAISkZSHD2w+myV6yjOMisEShEQGSmFZlA3rCTDKjco8FTZqRHQb9NUQGglGVa5CnO6LQSCIyAyEhzyKA1aSYZVLspKek7h94zwVtt77rnHy9Vp0wiEHPGw+q7dNFakJCcEAiIgMhIQ7IhNWUmGVS7iqma/r4QfX7z99ttjdrMXvomMNBRG64iHVa4ht6RGCDSGgMhIY1AmrchKMqxyMYOBURH8bg/eTBtDwo9PHnPMMe6cc84pfCFdDD7ShzvuuCP7LSTrtIqVjGg3DREuOVpJhlWuxIyyhUBnCIiMdAZ9VIatJMMqN23lMHIBW2ifVZ00O/OVK1eOOnP8WjTK4wcL0dFfdtllmUs33nijW7JkicOPF55yyikj+Un9hX++vWnKwyf8OnPZG0hZvyocQLJQ1yannq644ooZOlFv/ML2smXLTGTOSkascpPiXCSv3TRFqChPCHSMgMhIxwGIxLyVZFjlpqmW3wGio16wYMHYjo+dNckBiMhBBx1UOQ2D//JRdtJEe1XkoExvvnyVH3n5Mr0hyAhtwyf43VQKSkZSHD2w+myVaypw0iMEmkJAZKQpJNPWYyUZVrmm0OBIxrj1HeysQUbyRIT3ODKCDht1QLvnVAM6VYyWnHHGGdm9uXPnZiMpIDSQzZMO6oDcmjVrspEDjLJw6scf1Zk/f/5mpMgvj6kiyMM/+oFRB9iFftxnHZAPG/B99erVm42kQC/qsXjx4qw864dY4N6sWbOysmeffXZWlqSP9pYuXbrZqAplMNoC/xYuXDjy7YYbbmgqzKNYNKZwjCItYB0Djm4Jga4QEBnpCvm47FpJhlWuidqxU8+TgbxudtaLFi3KOkoSD8jxHvJAVDiN4eejkwXx4LQN7GI0BgQInXh+1w3Lwi900tDJstC1bt26zEXK+f74PrFePhmBH34+9NIG/YBPrIePBfJBVkAS/BElErTbbrttRCiIBwgKiA19pW3qJRlBvWAT5TCdxPyqKaGQIx70ueooMlKFkO4LgQ4QEBnpAPQITVpJhlWuqSqyk+QUTJFeyoBAoLP0p3V4D/nQAf/R5vnB6AFIB0gAZJDQqZNc+ASGtqnTJyP5TpxECnbQ2fvJL4+OPU9G2OHTD5IR2igjAj5JAXnAKAlGVlBv1gd+wB5HkXxSQ3v+2hXa2rBhw2hUhNhh5KZqdERkxI/8FOcA3ZKschZdkhECIRFA2/UfPmW2Q3dCZX4ovx0ErPHNy23cuNH9+te/zv57v/vuu93PfvazrHP/8Y9/7G699VZ38803ux/84Afue9/7Xvbf+vXXX++uvfZad/XVV7uvf/3r7sorr8xGLC699FL3pS99ya1atWqz9ojO0+9M8wiwcydhQafKUQTeIxkp0sORkSbICEYkMDrhExXqpd/0ieQiFTJCcsN6WI5WMqLdNBVoWkmGVa7CnG4LgeAIiIwEhzxKg3mSUeakL4chfnQ2c+bMcdtss43bfvvt3cMe9jC34447up133tk9+tGPdrvssovbdddd3eMf/3i35557ur322svtvffe7ilPeYp72tOe5vbdd1/37Gc/2+23337u+c9/vjvwwAOzEQqShjxRKPKLnTvJCK+hg6MKIAQY5eC6DsqgTJMjI/4aFxKTrsnIuGkaTusQDxIk4syREU7TMC7Ix2gSpn7GJSsZscqNs2W9ZxtisGoLJGclGVa5QG7LjBAwIyAyYoaq14I+yRhXUavcOB2WexgtgC20T3aQ7BDzi1nZkZKMQD9JzFlnnZWNkpAQYNSEernAk7K+DDvdomka6Id/6Mi5gJU+0hfYwIJQLA71/WLdWT6/gJXTRRit5LQJCRVtkCDk12tAntMuqJM/koF7RQtYUQcssqW/eZ2+LehsawFrUDKSYodt9dkqx4aooxCIBQG0XU3TxBKN7vxAZ6R20B3+XVi2jm6E8I3EMIQtLWANgbJsCIEJERAZmRCwnoqLjPQ0sF61MG10/PHHZ1NXyK5DRjDyAx0Y0bGkkCMeFn8gIzJiRUpyQiAgAiIjAcGO2JTISMTBSdg1kZGGgmedfrHKNeSW1AiBxhAQGWkMyqQViYwkHb5onbeSEe2mqQihlWRY5SrM6bYQCI6AyEhwyKM0KDLyQFiwYBULPYveRtpU4LB4FQtV8wtxm9Ifkx4rGbHKNVE37aZpAkXpEAINIyAy0jCgiaoTGfld4EAW+J6S3+WOP/O39Pq7WvKluG4DPzbHHTt5mUmv4S+3KPs7aCbV06V8UDKS4uiB1WerXJfBlm0hUISAyEgRKsPLExmZLuZ8lwdGO8aREd8KtspiQeg0iVuJue13Gl1dltVumgr0rSTDKldhTreFQHAEREaCQx6lwSGREXbgqDN/jG7cu0b48jJ8V/DJd/wsC33oVDFKgRGKsh+sg5yvB7tafHl/igijHpDH7+5AH96F4m/B5vtDUA+8zZYjI/AB7xzBq/Hpl18uVCMMOeJhrZN201iRkpwQCIiAyEhAsCM2hQ7L0llZ5SKu6owfv+NLzfDbK3zhGHxHJ89pFLzYjCMYlM+/HCw/MsI3vYLI8LdyfBkSGJAL5FM+n8+1JSREeTJCYgWChFEZn4ygLN6Q6vsQOi4iIw0hjge1JVnlLLokIwRCIiAyEhLteG1ZSYZVLt6a/u6H4nzy5ZMA+O6TEVyTDOD74o9csJ4+0fCnaaDXJwgkOCjHtR5+WZILkA7cp7yf7/vN/CIyUvY2Vvoc4mglI9pNUxENK8mwylWY020hEBwBkZHgkEdp0EoyrHJRVvK3TpEE+J36ODICeYxuYOQBxIGdvF9Hn1CIjPwOGSsZscr9TnP9M9sQQ339rZS0kgyrXCtOSqkQmAIBkZEpwOtRUSvJsMrFDA3IAnfLkERgmgYkA2st+FswHJXwyQvOWdavI/XkF7D6IyO+jE9+/HyOdHD6ZpppGpIm3wff55jOg5KRFDtsq89WuZiCL1+EABAQGVE7AAJWkmGVix1VkArUBe1/9erVmbsgKcjDYtDjjjtuNEUCssAfmTvjjDOyaReQDj9xGocLWMuIAG3ALhfC8rXs0OmTEYzc0M+yBazwATJYc1K0gBXEKgUyot00fmsqOLeSDKtcgQllCYFOEUDb9Yery5zpSydUVr+h51vja5UbOp5N17/LRajT1CXkiIfVT+2msSIlOSEQEAGRkYBgR2zKSjKschFXNRnXMGLCERl8TzmSkkwFnHMiIw1FyzriYZVryC2pEQKNISAy0hiUSSuykgyrXNJgyPnGELCSEe2mqYDcSjKschXmdFsIBEdAZCQ45FEatJIMq1yUlYzAKYx03H///RF4EsYFKxmxyjXhtXbTNIGidAiBhhEQGWkY0ETVWUmGVS5RGFp3e2hkxApoUDKS4uiB1WernDUwkhMCoRAQGQmFdNx2rCTDKhd3bbvzTmSkGHvtpinGZZRrJRlWuZFinQiBSBAQGYkkEB27YSUZVrmOqxOt+aGRkZAjHtagazeNFSnJCYGACPSRjPCFUnhpVWoJ74zg2z5D+m4lGVa5kL6nZEtkpPtoiYx0HwN5IAQ2QyAmMoKXS6Gzwxsur7nmGjd//vzsN0HoNMgFOupbbrklk8HbMosS8lesWJHJQOe0CTraIAh8wRV9xBF1h++oA+8DE7yRs81kJRlWuTZ9TVm3yEhx9LSbphiXUa51+sUqN1KsEyEQCQKxkRGOZuAlTz4ZQT7voZNGp11GRnxo169f71/WOg9FRnznfL8xWkLC4ss0eW4lGVa5Jn3rky6RkeJohpzO0W6a4hgoVwh0ikAKZMQnIgCLZGTZsmXZq7tRB44c8B7y8FrvtWvXZviCuIDAYIQD97Bgjrrw6m7k4f7ixYtnjMZAhmQE9ynHn5CHXnTQ1AkSBb8weoNfa8UoB+77vmSGf1sP2CbR4Ku/oQsvuGISGSES6R+HRkasEQtKRvAFSy1ZfbbKpVZ/+dt/BNB2Y3kdPDpljn5wZASjIyAQWAfCRMIBcoBzEg2c+8SFJAK/+QEZTrX4r9ZmWZALyOM3PkhgaA/5IBQgPFyPwh8ygw8oC9skFhdddFFGRvAjZ/AH+Pp2qNcvg/uUzf+WiMgIEUv/KDJSHEPtpinGZZRrJRlWuZFinQiBSBCImYxgNAEdNDtydN5IOIIEIB8JZAHXd955Z3bENRI7dZAPXwfzsS7F18N8yPsJ+khk8gSCPkA+T1owMkJiA5249n9gzdeFenKEBTHBh6MjIiN+NNI+HxoZCTniYW0ZWsBqRUpyQiAgAjGTEa4ZyZOP/HVMZKRsdMNCRnxi4zcBkREfjbTPRUa6j5/ISPcxkAdCYDMEUiAjcBqdOUZKQDzKyAjyQQbwQfJHNIpGRqCT+VXTNEUjIyRB/jQNCQVGWTBNw2vfDoMAfzm1g/u0wbJcByMyQsTSP4qMFMdQu2mKcRnl4kFtSVY5iy7JCIGQCKRCRoAJOn8Qkvz0CkkBOncSFdTLXzRKMoD7/nQMCQHkMWUzbgErplgoD5tI0MvpFX/em4Ri0aJF2ZSL7wvjm9cF0kFdnKKBrMgIEUv/KDJSHMOQ0zm2Xr3Yz85yrSTDKtdZRWRYCJQggLYb4wLWEndbzQbB4OjEtIZIRji6MY0+kZFp0Iur7NDIiBX9oGQkxQ7b6rNVzhoYyQmBUAjERkYwMoARCowahEj+yAawqEMeMN2D7byYrmGqS0bgDz5IHDkBJnX8oi+WI2zEQkot/qYog1/r3XrrrQf1q73WOPmjitYydeW0ZqQucionBFpEICYy0mI1W1dN8oH1KhhhIaFo3XBDBkRGGgJyjJpbb73V7bLLLoMiIyFHPMZAP+OWyMgMOHQhBOJAQGSkmTiQgICEFL2rpBkr7WkRGWkPW2r+whe+4A444ACREQLS0VFkpCPgZVYIjENAZOSBnTpYK8J3gozDa9w9rO1oas3JODtt3BMZaQPVmTpPOOEE99a3vtU0HTazZLpX1pER7aapiDEe1JZklbPokowQCIlA38kIRizQ0aKe/HDrL3HGaAbkJkmYlsm/1AzrRvD6d+jH+gvoxPoXfy3JJDZCyoqMtI/24x73OPe1r32tfUMRWbCSEatcE1Wz9epNWGpQh5VkWOUadE2qhEAjCKDt9nnhIgiBP1pBEoFFp0z+j9Ixr+pIPUWjKbgXagFulZ/W+22RkbvvvtuF/K/XWt/Qcqeddpp7yUteYvquhfYtBntByUiKHbbVZ6tcDEGXD0LAR2DoZASjGBw5yZMWvLQM+Pj5xC5PRjC6Qj18R8iQR0ZAQrBDArtHtthiC3fTTTcRusEdP/e5z7ltttnGffvb3x5c3a0V1m6aCqSsJMMqV2FOt4VAcASGQEZIElBXfLhNFoRi3bp1GebcRgsCwXPuiMExP93ikxGUAXHBS9GQj3PYGCIZ8UnItttum+G93XbbDZaMYEQEROTiiy8e5KhIyBEP68NTC1itSElOCAREYAhkxB/ZIFkAUWDyR0dAIkg0OJWDY/5H7iiDaRqQFa4TgU4sZEXekMhIEQkh+RsKGcF7RLB9d9WqVQ6LVbFG5JBDDnHXXXcdm9rgjiIjDYUcXyZLsspZdElGCIREYGhkBNiCOIAsgGRgGy7OORoCAkGiITKyeUssW1uC6ZjZs2ePFgmTiOCIDsm/7uv5nDlz3GMe8xj3/Oc/P9s1M7TFqpu3FpfFfuPGjUW3ZuSFXFdk69VnuNf9Bb40lmSVs+iSjBAIiQDabpMLWPFfYUwJ5KJsZMQf8SAxwcgIiQlIChKOmqZ5IKplZGToIyO//vWvY2r20fhiHRmxyjVRMVuv3oSlBnVYSYZVrkHXpEoINIJAU2Tk/PPPz36YDg+Vq6++uhHfmlACMpJfM4KRESSSDmAAsoGtuSQgnM7BPZ/M0CeOnnA3DcrRzpAXsBaRkqFM07Btzo7D5QAAIABJREFU6Dg5AkHJSIodttVnq9zkIVIJIdAuAmi704yMnHXWWW633XZzD33oQ7Oh+B122MFdf/317Tot7Y0jUDbikTdklfNJydB30+Qx1PXmCGg3zeaYzMixkgyr3AzluhACESBQh4z85je/caeffrrbaaedRiQEevDZfvvtRztUIqieXDAiYCUZVjmaBSkJuR6AdnWMA4GQIx7WGms3jRUpyQmBgAjUISNbbbWV23LLLQsXJeLhs88++2SL+FiNww47zL3yla90Rx55pDv22GOZnS3yw86TU0891b3vfe8zjdCMCuukUQSsJMMq16hzUpYsAiIjDYUOD2pLsspZdElGCIREoA4Z+clPfuJe//rXF+6SAFH59Kc/7b785S+PqnHeeedlazEwpfPP//zPo3wQkb//+793xx9/vHvjG984ygdxOfzww7M3Vi5cuHBEUp7+9Kdn61L23HPPbGqI00sPechDHOyio8SUAPMf/ehHu8c+9rFu9913d0960pNG+fvvv7+bP3++O/jgg93LXvayUT7WjfzlX/6le9Ob3uT+7u/+bpT/3ve+133wgx90Z555pvvEJz4x8hPvjsCC3UsvvdRdeeWVo/zvfve77uabb3Y/+tGP3E9/+tNRfswnVpJhlYu5rvItHAJWMhJy9MzWq4fDyGTJSjKsciajEhICARGoQ0boHjrdRYsWZW/ZhB58QAqwuLOrdN99941Mgwz88Ic/dPDTf9cDyMMll1ySvYjqggsuGMnjd2VAOt7znve4f/zHfxzlg5yApLzuda9zr3rVq0YkBWTmwAMPdM997nPdvvvuO8oH+cFPxe+8887uYQ972CgfWz+xBRbkCVNcJE177bVXtsUYZOs5z3nOKP+lL31phu8RRxzhjjrqqFH+W97ylozEvf3tb3fvfve7R/n/8i//kpE+LCYGIWTCIt5vfOMb7tprr822MzMfL2nDNMqvfvWrjMjRH94vOoqMFKGivDIErGTEKldmZ5J8kZFJ0JKsEAiEAEmE5VjWWaGjQ6eM9SJ41wQ6OKXNEcBLsbCD5+c//7nD6BLTDTfc4NasWZP9iNrq1auZ7S688EL3yU9+0p199tnuox/96Cgf01rYEXTiiSdmO4AYF0yDveIVr3CHHnpo9rIt5j/rWc/Kps7++I//2O2xxx4j8rLjjjtmMeOUG+VHhgpOREYKQFHW1AgEJSN42KWWrD5b5VKrv/wdJgIYMq2TvvSlL2XTInrnQh30ui1jJRlWuW5rI+upIaDdNBURs5IMq1yFOd0WAkJACHSCgJVkWOU6qYSMRodAyBEPa+W1m8aKlOSEgBAQAoERsJIMq1xg92UuUgRERhoKjHXEwyrXkFtSIwRaReDkk09uVb+Ux4eAlWRY5eKroTzqAgErGdFumoroWEmGVa7CnG4LgSgQUIcTRRiCOmGNuVUuqPMyFi0CVjJilWuioumtXnWu8KVOIB5FnyZAkg4hEAMC6nBiiEJYH6wxt8qF9V7WUkcgKBnpy+hB3Z0GqTcW+T8cBNTGhxNr1tRKMqxy1KujELAgoN00FpQkIwSEgBDoOQJWkmGV6zlcqp4RgZAjHkaXMLOR5EyNtX6SEwJCQAgki4CVZFjlkgVCjjeKQLRkpGithfKK16AIF+FS1AbwuyptJ+2maRvh+PRbSYZVLr4ayqMuELCSEe2mqREddBBKQqArBEK0P3U4XUW3O7vWmFvluquJLMeEgJWMWOWaqFtvevAQnQEBx+9Y4JdEV65cyazSI36cbMGCBQ4/iqXUXwRCtD91OP1tP2U1s8bcKldmR/lCoAiBoGQkxEO0qJJN54XcaQBigR/EsqYbb7wx++EskBilfiIQ4nsUso33M0rp1cpKMqxy6SEgj7tEQLtpWkR/klGNMjdARDDaYf1JdpCRuXPnmkZSymzWye/K7qT41KlbiDKT4BeCjISos2zEhYCVZFjl4qqdvOkKgZAjHtY6Fu6mwfTDJP/5W41VyeHhv3jxYnMnX6UP9zGKgSkVf1QCJAJ5VjLh26G+FStWlGIE7PwpHFxfdNFFWd1Qx6ZS3k5e7zR2WU8fN+gvy6dt3h+HD2UnOVJv3p9JdIyTJUmFHSReW+MmMjIOXd2ri4CVZFjl6vqhcv1CIAkygk4UD1Z0ZCET/wudZMTB969sp0HbnZjvA899koBOjaTHP6fsNEffTl6Pb8s/z8uVXZfhVpZfpqep/LbtAiMQVNipk0KQkbI2XsdflUkDASvJsMqlUWt52TYCVjLS2W4adG54IOf/qy0bseADHOXwMLaQGMjmH/i4xjQG/wtl5z0uICiDURR8aLto1AFyHBmBXpAdysOXokRiBDn45ev16+qPfvh6IMN7sE97OOIaKe9/3g71jZODndNOO21UJ78+4+wCj2XLlmV+lZE/lCdufpyZX1a+CB+2H+gjFtDDRAIMDKDXrwdlJrGL8rR5yy23jNo09MM+Y0PdOLKO9MtvA2UY+eWht+2kDqdthOPTb425VS6+GsqjLhCwkhGrXBN1KHyC4mFd1CHkDfIBzk4LD/KyTpVloZcPfObxyA7ESkbYucMPnBf5zE7szjvvzDoldkSwNX/+/BlEA36wTvQRR+pFWXZM7KwoxzrgCHnI5m0gz8fK9x/5tOPrgv4yOcgX+WOxSxygo8wufEIscGQ9x/lThg+x8m0SB99XksUyf8bhwDLUAVsgt4y7j1NV3KmDdYZu+uvHxj+Hb20ndThtIxyffmvMrXLx1VAexYxAUDJS9BDFg5wP93FAseNmJ4OHOEYq0MH4iQ932PI/+Qc8ylnXjKCjYAcDWy972csKfYZc3g7ky3xlndgR+fUAJqwr8nFdhFNejjp8X/L+l2E+Ts63P87vcXbLMGcZjFT4da7yx5elfz7hABbUDZ/z9c5f+9j58aZcURxxD+0MdogL8piK4kM5lMnXsQwj6sOx6Hvk32/iXLtpmkAxLR1WkmGVS6v28rZrBDrfTcMHfRUQ/gMcskUdQ14HOgI87IuS5aHPctDhk4wyn305nPtkqGwUxydP7ABZV79TK7Ppd3Y4923SZ98v1KlM1zg53w79gzyS1W4Z5sQKU3YgJNCPVOYP7Rfhk7fh64Cf+DBNigNiBUxxZIJ+6qRfyGPCPd9P5PtykPVjhvOytkKdkFESAk0jYCUZVrmm/ZO+NBEIOeJhRWiq3TT+AxwGYyYjWDsAYsFOyeIr6gR5Eoh8J4Zrdno+4JRDWZKZvC5fL+5N2gmjDO3g3I9Fld28T/41dCH5/vl2/HzI+X77criHa3zGkRG/fF4frpnK7BbF0ddJXJCHlL+mfubDTt4WZcYdRUbGoaN7dRGwkgyrXF0/VK5fCIiMVMQz32mNE893GFXTNHkygs6p6L/dfOcGO+hQkVCGHTd8RXnczyd2yrhHeXZ2JDZ5//0O1Nc3To52IE/9kK+yi44TMkjQwfqV2fXjMs6fMnz88rDh68A9ruEA9sCryh/o8PHy60AdrB9xIe6+Pb++lEO5vA6/Xn4Z/zwEGdFuGh/xYZxbSYZVbhioqZZVCFjJSGe7aVgB/0GPvHxnQjn/AY68fEdOOesxb2ecPr9Dg350BlWdGOoFOXww/YAOip2W7yPyKEcywfuwwXvQV5Qgg3vEB/IgLv5uobz/ecypd5wc7UCWtiDP8zK7/i4kdtK0x2OZ3bJ8livCJx/XIh3wFVhjdxB05FNRGcr59YUePy685/sFXflEOd6Dz4gZMcT1uAS5tpM6nLYRjk+/NeZWufhqKI+6QMBKRqxyTdSh/SfolF6iA6/qCGAiRGcwZVWiKJ7v1KNw6rdOkBD4ZGJa/6iTJGNafWXlQ7Q/dThl6Pc33xpzq1x/kVLN2kAgKBkJ8RCtCxI6Eoxg4FiVtNNgc4QwsoSRDxyZYiMj8AdtkB+OdtDfSY7QlS8/DRkpwq/MnxDfI7XxMvT7m28lGVa5/iKlmrWBQOe7adqolHQKgT4jEIKM9Bk/1a0YASvJsMoVW1Hu0BAIOeJhxbZwN421sOSEgBB4AAGREbWENhCwkgyrXBs+Smd6CIiMtBgz7TRoEVyprkQgBBlRG68MQ+8ErCTDKtc7gFShWghYyUjnu2lq1a7jQiE6g46rKPMRIxCi/anDibgBtOSaNeZWuZbclNrEELCSEatcE9XPdtPgQep/qNjP8x+2yn8AIeEgHPi9yLcF5gOh/L1Jv1+bNm3KiqDD8XUp/4HnVp9xsJIMX27WrFkz2sn999+ftR/lDwuHjRs3ZnEHofCfG8znc2jcMTgZGedMKve00yCVSPXTT598tFVDtfG2kI1Xr08yxnlplRunQ/eEQB6BoLtp8sZ1LQSEwOQIhCAjk3ulEqkjYCUZVrnU8ZD//UUg+pee9Rd61axPCIiM9Cma8dTFSjKscvHUTJ4IgZkI9IaMaKfBzMDqKiwCIdpfCBthUZO1KgSsJMMqV2VP94WAj4B20/hoGM/1n6kRKIkli4A6nGRDV9txa8ytcrUdUcFBIqAFrDXCLjJSAzQVSQoBdThJhasRZ60xt8o14pSUDAYBkZEaodZOgxqgqUhSCKiNJxWuRpy1kgyrXCNOSclgENBumsGEWhUVAkJACJQjYCUZVrlyS7ojBLpFoDcLWLuFUdaFgBAQAs0jYCUZVrnmPZRGIdAMAr0hI9pp0EyDkJZ4EVAbjzc2bXlmJRlWubb8lN5+IqDdNDXiqgWsNUBTkaQQUIeTVLgacdYac6tcI05JyWAQ0ALWGqEWGakBmookhYA6nKTC1Yiz1phb5RpxSkoGg4DISI1Qa6dBDdBUJCkE1MaTClcjzlpJhlWuEaekZDAIaDfNYEKtigoBISAEyhGwkgyrXLkl3REC3SLQmwWs3cIo60JACAiB5hGwkgyrXPMeSqMQaAaB3pAR7TRopkFIS7wIqI3HG5u2PLOSDKtcW35Kbz8R0G6aGnHVAtYaoKlIUgiow0kqXI04a425Va4Rp6RkMAhoAWuNUIuM1ABNRZJCQB1OUuFqxFlrzK1yjTglJYNBQGSkRqi106AGaCqSFAJq40mFqxFnrSTDKteIU1IyGAS0m2YwoVZFhYAQEALlCFhJhlWu3JLuCIFuEejNAtZuYZR1ISAEhEDzCFhJhlWueQ+lUQg0g0BvyIh2GjTTIKQlXgTUxuONTVueWUmGVa4tP6W3nwhoN02NuGoBaw3QVCQpBNThJBWuRpy1xtwq14hTUjIYBLSAtUaoRUZqgKYiSSGgDiepcDXirDXmVrlGnJKSwSAgMlIj1NppUAM0FUkKAbXxpMLViLNWkmGVa8QpKRkMAtpNM5hQq6JCQAgIgXIErCTDKlduSXeEQLcI9GYBa7cwyroQEAJCoHkErCTDKte8h9IoBJpBoDdkRDsNmmkQ0hIvAmrj8camLc+sJMMq15af0ttPBLSbpkZctYC1BmgqkhQC6nCSClcjzlpjbpVrxCkpGQwCWsBaI9QiIzVAU5GkEFCHk1S4GnHWGnOrXCNOSclgEBAZqRFqDWHXAE1FkkJAu2mSClcjzlpJhlWuEaekZDAIaDfNYEKtigoBISAEyhGwkgyrXLkl3REC3SLQmwWs3cIo60JACAiB5hGwkgyrXPMeSqMQaAaB3pARTdM00yCkJV4E1MbjjU1bnllJhlWuLT+lt58IaDdNjbhqAWsN0FQkKQTU4SQVrkactcbcKteIU1IyGAS0gLVGqEVGaoCmIkkhoA4nqXA14qw15la5RpySksEgIDJSI9TaaVADNBVJCgG18aTC1YizVpJhlWvEKSkZDALaTTOYUKuiQkAICIFyBKwkwypXbkl3hEC3CPRmAWu3MMq6EBACQqB5BKwkwyrXvIfSKASaQaA3ZEQ7DZppENISLwJq4/HGpi3PQDKwHs7y2bRpU1tuSO9AEdBumhqB1wLWGqCpSFII6L/fpMLVmrNqB61BK8U5BLSANQeI5VJkxIKSZFJGQJ1QytFrzne1g+awlKbxCIiMjMen8K6GsAthUWaPENBumh4Fc4qqhNzhMIWbKtoDBEK2td6sGelB3FUFISAEhIAQEAKDREBkZJBhV6WFgBAQAkJACMSDQG/IiKZp4mlU8qQdBNTG28E1Na0hdzikho38bRaBkG2tN2REC1ibbYTSFh8CWrgYX0y68EjtoAvUh2lTC1hrxF1kpAZoKpIUAuqEkgpXa86qHbQGrRTnEBAZyQFiudROAwtKkkkZAbXxlKPXnO8hdzg057U0pYhAyLbWm2maFAMtn4WAEBACQkAICAHnREbUCoSAEBACQkAICIFOEegNGdFOg07bkYwHQEBtPADICZgIucMhATjkYosIhGxrvSEjWsDaYouU6igQ0MLFKMLQuRNqB52HYDAOaAFrjVCLjNQATUWSQkCdUFLhas1ZtYPWoJXiHAIiIzlALJcawragJJmUEdBumpSj15zvIXc4NOe1NKWIQMi21ptpmhQDLZ+FgBAQAkJACAgB7aZRGxACQkAICAEhIAQ6RqA3IyOapum4Jcl86wiojbcOcRIGQu5wSAIQOdkaAiHbWm/IiBawttYepTgSBLRwMZJAdOyG2kHHARiQeS1grRFskZEaoKlIUgioE0oqXK05q3bQGrRSnENAZCQHiOVSQ9gWlCSTMgLaTZNy9JrzPeQOh+a8lqYUEQjZ1nozTZNioOWzEBACQkAICAEhoN00agNCQAgIASEgBIRAxwj0ZmRE0zQdtySZbx0BtfHWIU7CQMgdDkkAIidbQyBkW+sNGdEC1tba4yAUr1y50h199NHu3nvvjba+WrgYbWiCOqZ2EBTuQRvTAtYa4RcZqQGaimQIgICccsop7o477ogaEXVCUYcnmHNqB8GgHrwhkZEaTaDvQ9joKBcsWJB1mjXgMRVBhwwbMXXKN954o5s/f77Dsa2EUZG5c+e2aqMJ37WbpgkU09cRcodD+mipBtMgELKt9WaaZhrApy1rGeLHf9+YBvCnAph3+eWXZwQARADnRQk2VqxYkZUvkykrB5KBNM5PdPbLli3LbFC+SN8kedADmyA3ixcvNnf28AXyJEWoL/RMmkjg8nhBF+tIWxdddNEob1I7khcCQkAICIHpEBAZmQ6/rIPFf9U+yShSSeKB6SR2jszDdVnHSV3r16/n6URHdLrseMeREV8pfIFv0yTWrQ6JAB75EZo69a/CNF+/Juqd16lrISAEhIAQqEYgSTKCDt36qYagvgQ6XI4mWMnIaaedlhEXdnwo55MREAfUzZ82wH2/vrhmZ4/REsjiPvL95JfDOYgBRhzwgTxJCsrgHm2QQOAI/0AM8vL0k/rytqkPvl111VWjkZFxOuEHCQTt4Ro+4AgbOAfmuI/zVatWZec+XsSAulAOIyCQgX18WHf6SXv0AfUCtshHOeggDijTdoJd62fTpk1tuyP9ESEQcodDRNWWKx0gELKtJUtGLHHBw7zNxI6NneS40QSSB5bBkXkoz46TnSSOPMd9JpRDPsuiQ8Y5O0vo8ZOvB2XZaaNz5loMvyz9QB7kOUJRJs9O3vcR9ukfdEAnOnfIlun0fc7745MRxBT36aePBXT7iTKYgqF93IccykEP8aO/ed2QhyxxQFmW8W01fY56WkiGFjM2jXz8+hTz+GPUFw+1gLUiklaSYZWrMFd4Gx0r/kMnEajqoNjZoTPDOTq4DRs2ZB2b3wHiHIkdJo0jH/XBx++AKe93+CyDI2TxQfI7Ul8+bwvyyCuT93WyXvSDtpkPHXlbxMrPZzkcoYudP2Qgj6OfT/20S599PShTNJrB+uJITHmEHpajbsrTN/rv22r6HP4MkYwAa+B7zz33NA1p4/q68lVkpPFQSmEJAiIjJcAwGw9qS7LKWXTlZYo6snGdFDtPlENCRwcygzI4L+sAWY66UR4dJvPZYaK8/98//fWJAx+eKOvLU6dfBnll8r7OvB/UwXzoyNtiXfx8lsMRdWqSjJSNjOTrTR/gF+wTW18OefSf8m0ch0pGgCWmMkH2Y05o38uXL3e33357cDdD7nAIXjkZjAqBkG3N1qtHBY/L/pu1uNQmGfHtWzoov3NmWXTq8BHlyzpAloMMz30ygnMk3GcHTv04+sShjFz4ZX0/LPJ1pmnYmYciI6gfPrRLcoE8TlsRW9zzMQCGlCfO1OPj3PR5CmSEOLENNoEBdB500EGj0bw6OhFX6GiTKKBNzJs3z61du7aOiyojBIRADgGRkRwgdS79jg4PU3RWOPrJ7+yY73fkfLBDF5LfAeIcnRM6Tm7vvfPOOzM7ixYtGk01sCz1Uw8JD/SwI4U9fySFNiCLc5Ytk0cHBFnowKfINmTgc9ECVuCR94F+ExeUhwzxhA0SLuJJu5Cl39TjY0p5yOADedYR9cCHeX45yvAe7BET2mnjCH+anqZBHVhXkrAy34FRvp55XKAP7REjfE2NZMAu2zhjW+ajnw/7S5YsGREQ6JmkPHWhTJ7IoO0cc8wxI320xe3gljhRv45CQAgUIyAyUoxL9Ll+59qls3gwcyFsl36kZvuSSy4Z63LTZITtZZIOGmQDnTpT/pr50A2i0kSqs4UbdlEvEFV/NKSOriIyMq5eqDfqHzKF3OEQsl6yFR8CIduayEh88S/0CA88/z9Qdi5+Z1FYsIVMPLD5HzaOXfjQQrWCqdxnn33c1ltv7Z7xjGe4MlLSNBlBp+mPhFkqizIclQLp5IJtlMU9dP7w0x9lQVvgiApkMFqBsn5i22VZTnWgXWFxJvLxueyyy7KOHqMSbGOQgX5/gSvsYDQDZTDHTV8hg3Jcm8X7yIOdPHmBjz4ZgRymYtasWTNjZITlqQ8jI/QLtqB76dKl2bZznAMf1tHHoe45dGo0pi56KjcJAlrAWoEWHgKWZJWz6JKMEGgKgcMOO2zU4e6www6FpARt19LhWDumK664YmQTujHKYUnoePNTMSQT6ICR2BEjH/JVZMSX8ctSH3RCBj5CZxUZoQ8kF3kywrUdyMf5Oeeck5EpEBgQHj/BB+RfeOGFI9JDH3CP/oLo5PMRC+gjOYL/kPP9923VPbfGvK5+lRMCREBkhEiUHK0kwypXYkbZQqAVBHwygjaKT56UIK9JMuJXBJ0oCAM6/KpUJOuPitB/jo74RKNsZKRsuge+oLNHZwu9GOVgh09ffTLg+478MjLCkRT6g1EK6kU5P9G+P5rhy8IP+se6w0+U41oTXx66seuG/vu26p6H3OFQ10eV6wcCIduabYghMlzxELAkPix0fKDDEw7x4zBr1qysaSNWbZERGAAhwMeS8uQBnXrZlE9dMoIOHKSBxAF6YJcdOztzdPqU8X1HflNkZNzICP3KxyYkGfHrrXMh0BcEbL16ZLXFg9qSrHIWXZIRAk0h0MXICKZpSD44soEO1JLyZITEgfpIBKCX51hIinNOkfh2fMJCef8FgCQg1I+jfx6CjMB/jmjQH/jq14n5qA/yQ42M+FjqXAj0BQFbrx5Zba0kwyoXWfXkTs8R8MlIfnqGVUfbzf/3zXv+cZL1A+jQoRcfdu4gEOjccSxLkOXIBGVIaKCLUzS4h3x0ysiH3rIRFN8XrtuADdQH+ri9F2su0NFzagTDxkVkhOtBoDe/ZoTy8A0LaqumaUgqoAejLdYFrCxHkgK/kUhqiN20x5A7HKb1VeXTRiBkWxMZSbutyPsEEehiN02CMMnlEgQmIaAlKpQtBEwIaAFrBUz4r8uSrHIWXZIRAk0iULallzbQdpseGaFuHdNGQGQk7fil5L3ISEW0rCTDKldhTreFQHAEREaCQ17LIKdymnyPSJUjIXc4VPmi+/1GIGRbsw0xRIa3lWRY5SKrntwRAtmaC42MxN8QuHg1fk/loRCIGwGRkbjjI+8GikDokREsusRCz/xC1XHwY7EoPiETFoVyC+84uyFGLGCDL1Eb54vuCQEhUI2AyEg1RpIQAsERCE1GUEHsNgG5ADEpSiAqPvmAHK5RriwVkYc6xIf6TzvttM1eL897/m4Z5MH2JOTK14OdMdzlw3zWHyNWqAPerIofywOJ838Th/JtHUPucGirDtKbBgIh25rISBptQl4ODIEuyAggRodeRkZAPHwyAnnIhiIjVbaKRkPq/Fge6lNERsqaYJVfZeXq5msBa13kVG5SBLSAtQIx61oQq1yFOd0WAsERaIOMoNPEf/F8/wU6b/7iMvJgk5/8qADu810fX/ziFzfTgx+Iw7tB8iMRKMdpFdzDO0Tw3g74gTK4hk3ag48YcUAe7nFhqJ+PeyiPd5Aw+fdxDy9Rgx6+fI32UAecr1q1avROE9qgLp+M+FMx/sgI8+EL64dyeI8JcIAd+I96gdhADr+JM2ki5ihf9bGsMZrUvuSHjYDISEX88aW0JKucRZdkhEBIBNB2LZ0LOiuLHH1nh4prEAWOdOCcyZdhHo4cGSkiNSAWIADo5P1EMsLpDJRleZACnMMez2kDOlgWhAK68UFipw9C4CdcgxiAXEDGJyPACcSARAN2yn7EjjL4sTy8tI1khbjAH748Dfb9fBAP6EZM8LIzEhXW0SdQvu9l59b4WuXK7ChfCBQhoN00Rah4eVaSYZXzVOtUCESBQFtkBB02iANIADpNn4TgHJ0abONePiEPH5IJloVOjjygI/cTdeZHOSCPDhoJMri+8847MwJBvdCFTp+kA3aLRk1obxwZAUkAiaAO2ih6OyrJCHDwRzNIOmAHC1dxnx+QjnXr1s2Y3qE8iAnrKDLCaOkoBGYiYBtimFmm8ys8ACzJKmfRJRkhEBIBtF3LiMek/xGjMwYZYeeIjpfkgqMT7ETz9R1HRjjdky8DO+ioi0ZGJiEj0IO6cnTDJym02TQZKRsZgR3YB7nxE0kMp5yIo8iIj5LOhUAxArZevbhsZ7lWkmGV66wiMiwEShBoi4zAHDrJRYsWjUY/SEbQ4fN83MgIdOA+yQSOJDL56pCMoONmGdp3Bz4GAAAdXklEQVRgeciwPAkP9PhlKYORBZwX/QBf02QEpMK3C3/hH+qCkRb6z/pjGgn5IiP5VqDrVBHQbpqKyFlJhlWuwpxuC4HgCLRJRvAfPEYr0NEyoUOFTUyn8EfqQBr8RBl0tuj4IYsyGGnh1I8vj3PY4LoJlMEIyjXXXJORD3bm7PBhD5+iqRiOOtAeyIvvP2xRBvdADPw1I3WmaVBP+gNf8QEZwUgH6sKpGtaP9kVG8q1A16kioAWsFZHDA8mSrHIWXZIRAiERQNttY5omZB1kqxoB/Od51113lQpap+GscqWGdEMIFCAgMlIAip9lJRlWOV+3zoVADAiIjMQQhXZ9+OEPf+i23HJLt9VWW7mTTz65kJRYSYZVrt0aSXvfENBumoqIWkmGVa7CnG4LgeAIiIwEhzy4QZCR7bffPpvq2nbbbQtJiZVkWOWCV1IGhYARAdt8h1FZKDErybDKhfJbdoSAFQGREStS6cr5ZATxxidPSqwkwyqXLlryvO8IiIz0PcKqX5IITEJG2JHp+Lv3fqSCxZw5czISkvd39uzZjve0dijJr3AvnNZumoow4otrSVY5iy7JCIGQCKDtqhMKiXh4WxoZCY+5LE6GgBawVuBlJRlWuQpzui0EgiMgMhIc8uAGfTKSn56hM9bpF6sc9eooBCwIiIxUoGQlGVa5CnO6LQSCIyAyEhzy4AZBRrSbJjjsMjgBAtpNUwGWlWRY5SrM6bYQCI6AyEhwyDsxqPeMdAK7jEaIgG3xRWSOW0mGVS6y6skdIZAtatSaETUE6/SLVU6IxocA3ty7cOHC7GcELN/5+GrQjEciI83gKC1CoFEENDLSKJzJKrOSDKtcskD02PErrrgi+6mBGImIdtNUNDzriIdVrsKcbguB4AiIjASHPEqDVpJhlYutkv6PG4byzWqTv0t0zjnnmHa21fGfoyIh12ZM4qcWsFagZSUZVrkKc7otBIIjIDISHPIoDVpJhlWuiUr6PxK4dOlSh19SLkvnnnuug29oz/7HL4cfPMSPEJaNDOR/gJC2oBs/ijjOPmX9I8rlf2TRv798+fKRP7CN60ltlBEZjILgBxypD7rxw5T4ocm1a9f6bkRxLjJSEQYrybDKVZjTbSEQHAG03bKHs+9MyE7It6vzMAhY42uVm9ZrdM5LliwZdZzoTMd17LTHzpm/aMx8HtevX8/TzY5Nk5FxtuinPxoC+8ifJBXpGVce8rATWwo5YqM1I7FFX/4IAee0gFWtIEPASjKsctPCiv/sTznlFBNR9m2xc/bJCEhMfpTgoosuyvJuv/32UXGfjHBUBmQBoykgRosXL85GX/yOE7pnzZqVfY/8fJAnYAWyP3/+fOfbgUGO5MydOzcjXJCHz/Qfoxjz5s3Lyn/+85/PfIU+3wb0UB5+wgYWqEIGulhn1Av5KA97N9xwQ1Zn+ICREoz6UDfqivrA59tuu22ETZ9OREb6FE3VpTcIaGSkN6GcqiLojGIaIeM0w4IFC7IO2Z9uGVdRds5VZAT3V61aNWOUgGTkwgsvnDEqg04bxADTG/46EP+cdkkK1q1bl7nJfN8f3GA+R0byZITTQr5tEJ+DDjpoBrGhHpAXlIEdxJH4oU4gJfl8TN9QN8gJ6vLkJz/Z0X/uuhmHdar3REZSjZz87jUCIiO9Dq+5crGREXSU7HjZ4Y5b78GKUtbv/ItGRjDqktdHMgIsSBKgF76QHECG00d5vZDzR3P80ZHVq1fTxexIP2knT0aYT1IB8gDCANv+KAv1cGSDhJLlNmzYkOGI+/iu48PREfjrj56wXtTpYzjD+RYutJumAlQEzpKschZdkhECIRFA2+UDbJxda2c1TofuxYuANb5WuWlrys7UX4Dpd/Rl+os60jxpQMdfpItkpGhkZBIyghEUjKSAUMB/jkz4PtNPko5pyUjZyAjICEmGbx/nMZERLWDNRyd3bSUZVrmcel0Kgc4REBnpPARROGAlGVa5aSvlj0Cw486PZBTZoKz/X70/okDC4d+nHv+eT2DKRkbKpml8ezgHMcnbo59NkRHo8e3Sf9QJZIjkCyQPI05YDyIywsgncLSSDKtcAlWWiwNDQGRkYAEvqa6VZFjlSsxMlI0OFfbQRrlwk52rP1XhK2Unn+/8OWWChZlcW+GXw7lPRqgHBAifopERlIGP+QWsLAvfsdYFi0SLiBR84lqUaUdGfFID4oH6+1MwZQtYfRmOoND/PIZ5vJq8Znyb1FmmyzbfUVa6o3wrybDKdVQNmRUCpQiIjJRCM6gbVpJhlRsUeKpsJQJVv41UqaBBAZGRBsGUKiHQFAIiI00hmbYeK8mwyqWNhrxvEgH8avScOXPcVltt5U4++WR31113Nal+Yl0iIxNDpgJCoH0EREbaxzgFC1aSYZVLoc7yMQwCICM77LBDNt227bbbFpIS7aapiIV1+sUqV2FOt4VAcARERoJDHqVBK8mwykVZSTnVCQI+GcHzBp88KdFumorQWEmGVa7CnG4LgeAIoO1qa29w2KMzaCUZkEOb0UcYTNIGME1TJD979uxsCgf3Nm7cGOR7oWmaIDDLiBCYDAE8BERGJsOsj9KTkBFLe+kjRqpTPQQsIyPaTVOBLR7UlmSVs+iSjBAIiYDISEi047UlMhJvbFL3zCcj+emZLupm69W78GyMTSvJsMqNMaVbQqATBERGOoE9OqMiI9GFpDcOgYxoN82U4bSSDKvclO6ouBBoHAGRkcYhTVKhyEiSYUvG6ar3jGg3TUUorSTDKldhTreFQHAEREaCQx6lQZGRKMMyGKe0m6Yi1FaSYZWrMKfbQiA4AiIjwSGP0qDISJRhGYxTIiMVobaSDKtchTndFgLBERAZCQ55lAZFRqIMy2Cc0m6ailBbSYZVrsKcbguB4AiIjASHPEqDIiNRhkVOtYCAdtO0AKpUCoFpERAZmRbBfpQXGelHHFWLagRERqoxkoQQCI6AyEhwyKM0KDISZVgG45R201SE2jr9YpWrMKfbQiA4AiIjwSGP0qDISJRhGYxTWsBaEWorybDKVZjTbSEQHAGRkeCQR2lQZCTKsAzGKZGRilBbSYZVrsKcbguB4AiIjASHPEqDIiNRhmUwTmk3TUWorSTDKldhTreFQHAEREaCQx6lQZGRKMMip1pAQAtYWwBVKoXAtAiIjEyLYD/Ki4z0I46qRTUCIiPVGElCCARHQGQkOORRGhQZiTIsg3FKu2kqQm2dfrHKVZjTbSEQHAGRkeCQR2lQZCTKsAzGKS1grQi1lWRY5SrM6bYQCI6AyEhwyKM0KDISZVgG45TISEWorSTDKldhTreFQHAEREaCQx6lQZGRKMMyGKe0m6Yi1FaSYZWrMKfbQiA4AiIjwSGP0qDISJRhkVMtIKAFrC2AKpVCYFoEREamRbAf5UVG+hFH1aIaAZGRaowkIQSCIyAyEhzyKA2KjEQZlsE4pd00FaG2Tr9Y5SrM6bYQCI6AyEhwyKM0KDISZVgG45QWsFaE2koyrHIV5nRbCARHQGQkOORRGhQZiTIsg3FKZKQi1FaSYZWrMKfbQiA4AiIjwSGP0qDIyMyw3HHHHe6ggw5yl1122cwbumoFAe2mqYDVSjKschXmdFsIBEdAZCQ45FEaFBnZPCw33nijO/30092mTZs2v6mcZBHQAtZkQyfH+4yAyEifo2uvW1/JyPLlyx3qds4550xMKlB2wYIF7vbbb7cD2YHkFVdckY3i3HbbbR1YT8+kyEh6MZPHA0BAZGQAQTZUMQUycu+997pjjjkmIxdot/6njGxwuqXsfhk0l19+eWZrxYoVbuXKlWOJDGwsWbLErV27tkxdaT79w3RQ3REYjN5U2SZ2k+JQ6njDN7SbpgJQNHZLsspZdElGCIREAG3X8hC0dlYhfZet5hCwxtcq15xnxZowhQICEGLUYv369cVO/Da3SzICkgH7VSl2MqIFrBUR9Jl31XmFKt0WAlEiUNWu/fsW0hJlJeVUJQJWkmGVqzQ4pUCejJAQLFu2bDS1wikatOH58+dvRlw4+nHPPfdk3kD+lFNOyci5X7ZoNIGdO/BYunSpW7x48Wh0wi9Lu7AF8gQ5loFdjoxgASfy586dO9LjQ+Tr5GJP3wfUEX74dYE+5K9evdpRFvjMmzdvlB/Ld1pkxI+28fzkk082SkpMCKSJAIZMlYaFADouS8dklWsbvSIygt0vJA7o5NetW5e5wY44vzOGBAZTHJA5/vjjMyKAaRmSEl/Gr9O5556bTeOg8wfRQAcPPWV28zLcqQN5nJNg+ISI9vy6+v5s2LDB4YPk58MWdGINCctCDlNcRx99dEZYfP9pp8sj6x/CB9t8RwhPZEMICAEhIARmIGAlGVa5GcpbuGAny2kadup5wuGPKOTvwS3cRz70gYyAXPhlODJIkoMyJDfM84kAq+rrwMgECQL8ZXnY9f0GGQRJIBGiLsoD+3yn7d/DqMoNN9yQrXEp00GfsegV5IQjKbQ1hKPIyBCirDoKASGQJAJWkmGVaxuEKjKC+xitQOeLDhcdbxEZAUkAccBoCBeq8rpspIgEgB27T0bK7E5DRogliQtiQIIza9as7Nz3wR/ZYdm8zyIjRCbho6ZpEg6eXDchoDZugqlXQlaSYZVrGxwLGeECVxKEIjLCTnzRokWjtRoYncA0B0YxSADyZf1pDhANTtP4fvl2pyEj0MNRG5IK+AOdHN2gDxgZoS1O02B78po1azJZEqjYyIh209T4xmDYTkkI9BmBWDqcPmMcW92sMbfKtV0/v9OHrTxpYKcNf7GwEws3OfKR9w3EgmspeM+fZmEHzns45vVzAWs+n3ZJEOpM08AefERd0P9wqgZ1XrhwYZZ/3HHHZXUASeF0D0ZNIH/22WePRodYl9jIiBaw+q3LeC4yYgRKYskiEEuHkyyACTpujfk4ubvvvtuF/A83QZjlcgkCIiMlwIzL1hD2OHR0rw8IaDdNH6I4WR3GkQxfU5EcSAj+W996663dFlts4W666Sa/iM6FQCUCHO2pFGxAQHMbDYAoFUJACAiBNhAoIhlFdnw5n4Rsu+222ZTAdtttJzJSBJzyokFAZCSaUMgRISAEhMBMBHySMfPOzCvI3XXXXaOREJIQTF/jIzIyEy9dxYdAb8iIpmnia1zyqD4C7EQsx7KtjvWtq2QsCExCRubMmeNmz56dkY98uwEZ8fPuv//+rIpf+cpXRgswcZ/5uMmFlsp/YMFpSjhs3Lhx1ISx7oOxnzT/pJNOMr10b2RsipPekBGArSQE+oIA2rOFZFg7q77gMrR6WOOrkZGhtYww9dUC1ho4i4zUAE1FokVAZCTa0AR1bBIyQvKqNSNBQ9RrYyIjNcKraZoaoKlItAiIjEQbmqCO1SEjdNAnJdpNQ1R0nAQB7aaZBC3JCoEeIiAy0sOg1qjSNGSE5kBK9J4RoqFjrAhooUWskZFfg0ZAZGTQ4R9VvgkyMlKmEyEQMQK9ISOapom4lcm1iREQGZkYsl4WEBnpZViTqVTIEbXekBE8vJWEQF8QEBnpSySnq4fIyHT4qfR0CGgBaw38REZqgKYi0SIgMhJtaII6JjISFG4ZyyEgMpIDxHKpaRoLSpJJBQGRkVQi1a6fIiPt4ivt4xHQbprx+OiuEOg9AiIjvQ+xqYIiIyaYJNQDBLTQogdBVBX6h4DISP9iWqdGIiN1UFOZFBHoDRnRNE2KzU8+lyEgMlKGzLDyRUaGFe/YaqvdNDUigoe3khDoCwIiI32J5HT1EBmZDj+Vng4BLWCtgZ/ISA3QVCRaBERGog1NUMdERoLCLWM5BERGcoBYLjVNY0FJMqkgIDKSSqTa9VNkpF18pX08AtpNMx4f3RUCvUdAZKT3ITZVUGTEBJOEeoCAFlr0IIiqQv8Q6AsZueOOO9xBBx3kTjnllGSDdOONN7oFCxa4tWvXBq+DyEhwyGWwIwR6Q0Y0TdNRC5LZVhAIRUbOPfdcB1v+ZxxxuPfee93RRx/tVq5cOao38y6//HIH8rFkyRKHDhwJulasWOGWLVs2yhsVNJ5A/zHHHOOgf9JEMnTZZZdNWnQkj7pW2aaPPi4jBVOciIxMAZ6KTo2AdtPUgBAPUyUh0BcEQpERHy903CAaOJYlEg+/02XeuA4bMuP0ltlDPjv6cfrLyjdBRtavX1+mfpRPH31cRjenOBEZmQI8FZ0aAS1grQGhyEgN0FQkWgS6ICMYxajqTEk8fDnmgSyg8+fICIkA6jJ37tzRNAfKgvRg6gP3ykZikI/OePHixdmHZIT5KAsdt99++8guRmBQhvboA8swPx94+IRy0Ll06VJ3zz33ZCLLly8f5dMWbvj5GHUhGYF92ICeaUZj6J/ICJHQsQsEREZqoK5pmhqgqUi0CKAz27RpU6V/1s6qShGmVdCRolMdl0g84F/+g86XZOSaa67JCAcJBI4gICiPjp8dO+zOnz9/sykcyPsy8+bNyzp36F+3bl3mIgkAZEk6SJJAFkBAmI9z4Ml8H1v6jDUheZ1FtmAP62BAguA/yNeGDRuyqSTUEUSGhIukZhym4+5Z42uVG2dL94RAHgHtpskjomshMDAEQpMRdJ7syMdBTTLiyzKPpACd81VXXTUa+SBp4agEO2qUIxHgGhPaBnnAB8knCP59dMDQTRIEgsDRCNjwyUg+3ycj0MmRDn9UhLZ4j7ao29dBH4kLsCAxoZ46RyvJsMrV8UFlhEAIBLTQIgTKsiEEJkQgJBlBR2pdYApZdLLsdFEt5uXJCKZX8iQD8ijLUZJJyQj0YZQEOkgAaHcaMsJ6YKEsOvZzzjkn8x22cO7bgm2OtDCsvE9cREaIjI5CwIZAb8iIpmlsAZdUGgiEJCPo4C1TNECOxIOdrp9HUoCREU7TcHQD9zjtgrJVZMSXJwHB6AbOoZ9TJP70TV0yAkIEEgKdSBgJgY9ltuCbP02Deq1ZsybTQVwgo5GRDE79SRgB7aapETw8vJWEQF8QCElG0HGSNBA/dNDoTHH0k5WMoCNHWXTaqAunaKDLQkYgB58wSuEvYOUIBHTCP5Ao6KOt/HRMWb4/xQJbwAC2oJdTNbSFfOTRFutAeX/kRGQE6Cj1BQEtYK0RSTxElIRAXxBAe853mEV1Q4dYJnf33Xc7jRgWoZZO3rj4+rWwyvlldC4EqhAQGalCqOC+HroFoCgrWQSmISMgIRhe3WqrrdwWW2zhbrrppmRxGLrjVpJhlRs6nqr/ZAhoN81keElaCPQOgTpkxCch2267bTblsN1224mMJNw6rCTDKpcwFHK95whobqPnAVb10kRgEjJy1113jUZCSEJQHh+RkTTjT6+tJMMqR706CoHYEOgNGdE0TWxNS/5Mg8AkZGTOnDlu9uzZGfkgCeERc74813HzF7WlgEnZmiC/fYmM+GjovCkEtJumBpJ4qCgJgb4ggPZs7YQ0MtKXqG9eDyvJsMptbkE5QqAcAS1gLcem9I7ISCk0upEgApOQEZIWrRlJMNAVLltJhlWuwpxuC4EZCIiMzIDDdqFpGhtOkkoDgTpkhDXzSYl20xCVNI9WkmGVSxMFed0VAtpN0xXysisEIkFgGjLCKoCUiKQTjTSPVpJhlUsTBXk9BAS00GIIUVYdk0OgCTKSXKXl8GYIWEmGVW4zA8oQApEg0Bsyov8AI2lRcqMRBERGGoExeSVWkmGVSx4QVSAoAtpNUwNuPLyVhEBfEBAZ6Uskp6uHlWRY5abzRqWHhoAWsNaIuMhIDdBUJFoEREaiDU1Qx6wkwyoX1HkZSx4BkZEaIdQ0TQ3QVCRaBERGog1NUMesJMMqF9R5GUseAe2mST6EqoAQmA4BkZHp8OtLaSvJsMr1BRfVo38IaKFF/2KqGvUAAZGRHgSxgSpYSYZVrgGXpEIItIJAb8iIpmlaaR9S2hECIiMdAR+ZWSvJsMpFVj25EzkC2k1TI0B4eCsJgb4gIDLSl0hOVw8rybDKTeeNSg8NAS1grRFxkZEaoKlItAiIjEQbmqCOWUmGVS6o8zKWPAIiIzVCqGmaGqCpSLQIiIxEG5qgjllJhlUuqPMyljwC2k2TfAhVASEwHQIiI9Ph15fSVpJhlesLLqpH/xDQQov+xVQ16gECIiM9CGIDVbCSDKtcAy5JhRBoBYHekBFN07TSPqS0IwRERjoCPjKzVpJhlYusenIncgS0m6ZGgPDwVhICfUFAZKQvkZyuHlaSYZWbzhuVHhoCWsBaI+IiIzVAU5FoERAZiTY0QR0DyUBbsHw2bdoU1DcZ6z8CIiM1YqxpmhqgqUi0CIiMRBuazh0LucOh88rKgU4RCNnWNLfRaahlXAgUIyAyUoyLcoWAEOgnAiIj/YyrapU4AiIjiQdQ7gsBITARAr0hI5qmmSjuEo4cAZGRyAPUoXshdzh0WE2ZjgCBkG2tN2QED28lIdAXBERG+hLJ5uuhnTPNYyqNxQhoAWsxLmNzRUbGwqObiSEgMpJYwAK6KzISEOyBmxIZqdEANE1TAzQViRYBkZFoQ9O5YyF3OHReWTnQKQIh25rmNjoNtYwLgWIEREaKcVGuEBAC/URAZKSfcVWtEkdAZCTxAMp9ISAEJkKgN2RE0zQTxV3CkSMgMhJ5gDp0L+QOhw6rKdMRIBCyrfWGjODhrSQE+oKAyEhfItl8PbSAtXlMpbEYAS1gLcZlbK7IyFh4dDMxBERGEgtYQHdFRgKCPXBTIiM1GoCmaWqApiLRIiAyEm1oOncs5A6HzisrBzpFIGRb09xGp6GWcSFQjIDISDEuyhUCQqCfCIiM9DOuqlXiCIiMJB5AuS8EhMBECPSGjGiaZqK4SzhyBERGIg9Qh+6F3OHQYTVlOgIEQra13pARPLyVhEBfEBAZ6Uskm6+HFrA2j6k0FiOgBazFuIzNFRkZC49uJoaAyEhiAQvorshIQLAHbkpkpEYD0DRNDdBUJFoEREaiDU3njoXc4dB5ZeVApwiEbGua2+g01DIuBIoRABmxfjZt2lSsRLlCQAgIgUQQEBlJJFByUwgIASEgBIRAXxHoDRnRNE1fm6jqRQTUxonEsI8hdzgMG2nVPmRb6w0ZwZC2khDoMwJauNjn6NrrpnZgx0qS0yGgBaw18BMZqQGaiiSFgDqhpMLVmrNqB61BK8U5BERGcoBYLjWEbUFJMikjgCFTJSEQcoeD0B42AiHbmuY2ht3WVHshIASEgBAQAp0jIDLSeQjkgBAQAkJACAiBYSPQGzKiaZphN+Qh1F5tfAhRrq5jyB0O1d5Ios8IhGxrvSEjWsDa56+E6gYEtHBR7UDtQG0gJAJawFoDbZGRGqCpSFIIiIwkFa7WnFU7aA1aKc4hIDKSA8RyqSFsC0qSSRkB7aZJOXrN+R5yh0NzXktTigiEbGu9maZJMdDyWQgIASEgBISAEHBOZEStQAgIASEgBISAEOgUgd6QEU3TdNqOZDwAAmrjAUBOwETIHQ4JwCEXW0QgZFvrDRnRAtYWW6RUR4GAFi5GEYbOnVA76DwEg3FAC1hrhFpkpAZoKpIUAuqEkgpXa86qHbQGrRTnEBAZyQFiudQQtgUlyaSMgHbTpBy95nwPucOhOa+lKUUEQra13kzTpBho+SwEhIAQEAJCQAhoN43agBAQAkJACAgBIdAxAr0ZGdE0TcctSeZbR0BtvHWIkzAQcodDEoDIydYQCNnWekNGtIC1tfYoxZEgoIWL/9++HeQACMJAFL3/qXXPihBaHHxLEy2TP5PYAP2IEYdlyMFhA360vAusC2ZrRhag+SSKgJ9QlF1lYuWgDK3CAwHNyABk5tEW9gwl7yQTME2T7N4+7Z0TDvtUq5RIoDNr1xzTJBpNMwIIIIAAAgiYppEBBBBAAAEEEDhM4JqdEcc0h5Nk+XICMl6OOGKBzgmHCCBElhHozNo1zYgLrGV5VPgjBFxc/IgRh2XIwWEDfrS8C6wLZmtGFqD5JIqAn1CUXWVi5aAMrcIDAc3IAGTm0Rb2DCXvJBMwTZPs3j7tnRMO+1SrlEigM2vXHNMkGk0zAggggAACCDzPC6lQ9N2GnqizAAAAAElFTkSuQmCC;" vertex="1" parent="1">
          <mxGeometry x="90" y="370" width="547" height="501" as="geometry" />
        </mxCell>
      </root>
    </mxGraphModel>
  </diagram>
</mxfile>
